<svg width="13" height="14" viewBox="0 0 13 14" fill="none" xmlns="http://www.w3.org/2000/svg">
<path d="M12.391 9.37102C12.5111 9.03192 12.4398 8.65444 12.2043 8.38251C11.9688 8.11058 11.6053 7.98611 11.2526 8.05655C10.8998 8.12699 10.612 8.3815 10.499 8.72302C10.0322 10.0991 8.87038 11.1243 7.4469 11.4163C6.02341 11.7082 4.55188 11.2232 3.581 10.142C3.49114 10.0433 3.49466 9.89145 3.589 9.79702L5.311 8.07602C5.45366 7.93291 5.49616 7.718 5.4187 7.53137C5.34125 7.34473 5.15907 7.22307 4.957 7.22302H0.5C0.223858 7.22302 0 7.44688 0 7.72302V12.18C4.29762e-05 12.3823 0.122017 12.5647 0.308999 12.642C0.495982 12.7193 0.711114 12.6763 0.854 12.533L1.823 11.564C1.86995 11.5152 1.93476 11.4876 2.0025 11.4876C2.07024 11.4876 2.13505 11.5152 2.182 11.564C3.64303 13.1278 5.81813 13.8091 7.9102 13.3583C10.0023 12.9074 11.7037 11.3908 12.391 9.36402V9.37102Z" fill="#3852F7"/>
<path d="M13 1.73398C12.9999 1.53166 12.878 1.3493 12.691 1.27201C12.504 1.19472 12.2889 1.23774 12.146 1.38098L11.121 2.40598C11.0741 2.4545 11.0095 2.48189 10.942 2.48189C10.8745 2.48189 10.8099 2.4545 10.763 2.40598C9.29381 0.856308 7.12125 0.187707 5.03499 0.643207C2.94873 1.09871 1.25255 2.61198 0.56298 4.63298C0.38404 5.15572 0.662743 5.72454 1.18548 5.90348C1.70822 6.08242 2.27704 5.80372 2.45598 5.28098C2.92035 3.90892 4.0755 2.8846 5.49326 2.58769C6.91102 2.29078 8.3801 2.76554 9.35598 3.83598C9.44688 3.93489 9.44379 4.08783 9.34898 4.18298L7.68898 5.84198C7.54632 5.98509 7.50382 6.2 7.58128 6.38664C7.65873 6.57327 7.84091 6.69494 8.04298 6.69498H12.5C12.7761 6.69498 13 6.47113 13 6.19498V1.73398Z" fill="#3852F7"/>
</svg>
